<svg xmlns="http://www.w3.org/2000/svg" width="64" height="64" viewBox="0 0 64 64" fill="none">
  <circle cx="32" cy="32" r="32" fill="#FF6B9D"/>
  <path d="M20 28c-2 0-4-2-4-4s2-4 4-4 4 2 4 4-2 4-4 4zm24 0c2 0 4-2 4-4s-2-4-4-4-4 2-4 4 2 4 4 4z" fill="#fff"/>
  <ellipse cx="32" cy="32" rx="12" ry="14" fill="#fff"/>
  <circle cx="28" cy="30" r="2" fill="#333"/>
  <circle cx="36" cy="30" r="2" fill="#333"/>
  <ellipse cx="32" cy="36" rx="3" ry="2" fill="#333"/>
  <path d="M26 42c0 3 2.5 5 6 5s6-2 6-5" stroke="#333" stroke-width="2" fill="none" stroke-linecap="round"/>
</svg>
